<svg width="20" height="18" fill="none" xmlns="http://www.w3.org/2000/svg"><path d="M17.418 5.34v-.5a.5.5 0 00-.494.576l.494-.076zm1.415 9.099l.494-.077-.494.076zm-2.017 2.329v.5-.5zm-13.63 0v-.5.5zm-2.02-2.33l-.493-.076.494.076zM2.583 5.34l.494.076-.494-.076zm2.02-1.715v.5-.5zm10.797 0v.5-.5zm2.02 1.715v.5a.5.5 0 00.494-.577l-.494.077zm-.495.076l1.415 9.1.988-.154-1.415-9.1-.988.154zm1.415 9.1a1.5 1.5 0 01-.04.646l.96.277c.101-.35.124-.717.068-1.077l-.988.153zm-.04.646a1.51 1.51 0 01-.312.572l.756.655c.239-.276.415-.6.516-.95l-.96-.277zm-.312.572a1.55 1.55 0 01-.526.394l.415.91c.332-.152.628-.373.867-.649l-.756-.655zm-.526.394c-.202.092-.423.14-.646.14l.001 1c.366 0 .727-.079 1.06-.23l-.415-.91zm-.645.14H3.186v1h13.63v-1zm-13.63 0c-.223 0-.444-.048-.646-.14l-.414.91c.333.152.695.23 1.06.23v-1zm-.646-.14a1.542 1.542 0 01-.527-.393l-.755.655c.239.276.535.497.868.648l.414-.91zm-.527-.393a1.516 1.516 0 01-.311-.572l-.96.277c.1.35.277.674.516.95l.755-.655zm-.311-.572a1.502 1.502 0 01-.041-.648l-.989-.153c-.055.36-.032.728.07 1.078l.96-.277zm-.041-.648l1.415-9.099-.988-.153-1.415 9.099.988.153zm1.415-9.099c.055-.358.239-.685.519-.923l-.647-.762a2.517 2.517 0 00-.86 1.532l.988.153zm.519-.923c.28-.237.637-.368 1.007-.368v-1c-.606 0-1.193.214-1.654.606l.647.762zm1.007-.368H15.4v-1H4.602v1zm10.798 0c.37 0 .727.131 1.007.368l.647-.762a2.556 2.556 0 00-1.654-.606v1zm1.007.368c.28.238.463.565.518.923l.988-.153a2.516 2.516 0 00-.86-1.532l-.646.762zm1.012.347v1-1zM7.352 3.698c.247-1.66 1.545-2.486 2.895-2.484 1.352.002 2.683.835 2.975 2.497l.985-.173C13.818 1.328 12.01.217 10.248.214 8.483.212 6.694 1.324 6.363 3.551l.989.147z" fill="currentColor"/></svg>