<svg width="21" height="21" fill="none" xmlns="http://www.w3.org/2000/svg"><path fill-rule="evenodd" clip-rule="evenodd" d="M8.44 17.447l-.029-.059L0 12l2.996-2.214L5.473 0 8.47 2.214l9.996-.641-1.152 3.553L21 14.534h-3.716l-.029.03L9.564 21 8.44 17.447z" fill="currentColor"/><path fill-rule="evenodd" clip-rule="evenodd" d="M8.441 17.355v.058l5.82-2.913 1.094.03h1.93l-.115-.874-.807-5.622.95-2.883h-.028l-.087-.03-6.28-1.106L8.47 2.209v.03l-.749 1.397-2.276 4.37-2.333 1.718-.115.087 4.522 4.69.922 2.854z" fill="currentColor"/></svg>